<svg xmlns="http://www.w3.org/2000/svg" width="36.106" height="40.524" viewBox="0 0 36.106 40.524"><g transform="translate(-140 -30)"><path d="M2261.073,634.843l-4.8-17.7a1.185,1.185,0,0,0-.833-.833l-17.7-4.8a1.183,1.183,0,0,0-1.029.2c-.019.015-.037.031-.055.047l-.062-.062-11.246,11.246v0c-.024.024-.049.048-.071.075a1.184,1.184,0,0,0-.224,1.112l5.339,17.154a1.184,1.184,0,0,0,.64.725l21.689,9.875a1.18,1.18,0,0,0,1.579-.615h0l6.541-15.385c.007-.008.014-.015.02-.023A1.183,1.183,0,0,0,2261.073,634.843Zm-7.632,12.428-3.115-10.935h7.764Zm4.942-13.3h-8.73l-2.076-7.287,6.928-7.02Zm-19.761,0v-7.405l6.7.853,1.866,6.552Zm14.153-15.925-6.957,7.05-7.2-.916v-9.97Zm-16.52,5.832-7.519-.957,7.519-7.519Zm-8.385,1.319,8.385,1.068v8.891a1.186,1.186,0,0,0,.027.251l-3.992,3.992Zm6.315,15.655,4.513-4.513h9.167l3.515,12.342Z" transform="translate(-2085.008 -581.476)" fill="#222427"/></g></svg>